<svg width="24" height="24" viewBox="0 0 24 24" fill="none" xmlns="http://www.w3.org/2000/svg">
    <path d="M6.43285 21.413C6.05411 21.021 5.86473 20.55 5.86473 20C5.86473 19.45 6.05411 18.9793 6.43285 18.588C6.81159 18.1967 7.26634 18.0007 7.7971 18C8.32786 17.9993 8.78293 18.1953 9.16232 18.588C9.54171 18.9807 9.73076 19.4513 9.72947 20C9.72818 20.5487 9.53913 21.0197 9.16232 21.413C8.78551 21.8063 8.33043 22.002 7.7971 22C7.26377 21.998 6.80902 21.8023 6.43285 21.413ZM16.0947 21.413C15.7159 21.021 15.5266 20.55 15.5266 20C15.5266 19.45 15.7159 18.9793 16.0947 18.588C16.4734 18.1967 16.9282 18.0007 17.4589 18C17.9897 17.9993 18.4448 18.1953 18.8242 18.588C19.2035 18.9807 19.3926 19.4513 19.3913 20C19.39 20.5487 19.201 21.0197 18.8242 21.413C18.4473 21.8063 17.9923 22.002 17.4589 22C16.9256 21.998 16.4709 21.8023 16.0947 21.413ZM6.97585 6L9.29469 11H16.058L18.715 6H6.97585ZM6.05797 4H22L17.1932 13H8.8599L7.7971 15H19.3913V17H4.53623L7.41063 11.6L3.93237 4H2V2H5.1401L6.05797 4Z"
          fill="black"/>
</svg>
