<svg width="24" height="24" viewBox="0 0 24 24" fill="none" xmlns="http://www.w3.org/2000/svg">
    <path d="M18.6775 20L18.7864 19.125C18.8584 18.5417 18.9426 17.8333 19.039 17C19.0711 16.8167 19.0914 16.6417 19.0997 16.475C19.1081 16.3083 19.128 16.15 19.1595 16L19.2684 15.125C19.3404 14.5417 19.4246 13.8333 19.521 13C19.6174 12.15 19.7019 11.4377 19.7745 10.863L19.8825 10L20.1235 8V8.025L18.6775 20ZM6.57908 22C6.04887 22 5.59514 21.8043 5.21789 21.413C4.84064 21.0217 4.65169 20.5507 4.65105 20H18.7016L20.1235 8.025H17.4725L17.2073 10.15C17.1752 10.4333 17.0547 10.6543 16.8458 10.813C16.637 10.9717 16.396 11.034 16.1228 11C15.8497 10.966 15.637 10.845 15.4847 10.637C15.3323 10.429 15.2719 10.1833 15.3034 9.9L15.5203 8.025H11.6884L11.4233 10.125C11.3911 10.4083 11.2706 10.6333 11.0617 10.8C10.8529 10.9667 10.6119 11.0333 10.3387 11C10.0656 10.9667 9.8487 10.8417 9.68803 10.625C9.52736 10.4083 9.46309 10.1583 9.49522 9.875L9.71213 8.025H6.09707C6.16134 7.45833 6.37021 6.97933 6.72368 6.588C7.07715 6.19667 7.51096 6.00067 8.0251 6H9.95313C10.0817 4.75 10.4956 3.771 11.1948 3.063C11.894 2.355 12.8458 2.00067 14.0502 2C15.0785 2 15.9342 2.396 16.6174 3.188C17.3005 3.98 17.6338 4.91733 17.6171 6H20.0753C20.6537 6.01667 21.1357 6.25 21.5213 6.7C21.9069 7.15 22.0596 7.675 21.9792 8.275L20.5332 20.275C20.4689 20.775 20.2559 21.1877 19.8941 21.513C19.5322 21.8383 19.1106 22.0007 18.6293 22H6.57908ZM11.8812 6H15.7131C15.7292 5.45 15.5486 4.97933 15.1713 4.588C14.7941 4.19667 14.34 4.00067 13.8092 4C13.2469 4 12.8008 4.17933 12.4711 4.538C12.1414 4.89667 11.9448 5.384 11.8812 6ZM6.33807 18H2.96402C2.69088 18 2.46209 17.904 2.27764 17.712C2.09319 17.52 2.00065 17.2827 2 17C1.99936 16.7173 2.09191 16.48 2.27764 16.288C2.46337 16.096 2.69217 16 2.96402 16H6.33807C6.61121 16 6.84032 16.096 7.02542 16.288C7.21051 16.48 7.30273 16.7173 7.30209 17C7.30145 17.2827 7.2089 17.5203 7.02445 17.713C6.84 17.9057 6.61121 18.0013 6.33807 18ZM9.23012 14H4.89205C4.61891 14 4.39012 13.904 4.20567 13.712C4.02122 13.52 3.92868 13.2827 3.92803 13C3.92739 12.7173 4.01994 12.48 4.20567 12.288C4.3914 12.096 4.6202 12 4.89205 12H9.23012C9.50326 12 9.73237 12.096 9.91746 12.288C10.1026 12.48 10.1948 12.7173 10.1941 13C10.1935 13.2827 10.1009 13.5203 9.9165 13.713C9.73205 13.9057 9.50326 14.0013 9.23012 14Z"
          fill="black"/>
</svg>
